<?xml version="1.0" ?><!DOCTYPE svg  PUBLIC '-//W3C//DTD SVG 1.0//EN'  'http://www.w3.org/TR/2001/REC-SVG-20010904/DTD/svg10.dtd'><svg enable-background="new 0 0 72 72" height="72px" id="Layer_1" version="1.0" viewBox="0 0 72 72" width="72px" xml:space="preserve" xmlns="http://www.w3.org/2000/svg" xmlns:xlink="http://www.w3.org/1999/xlink"><g><path d="M38.381,16.867c-13.503,0-24.447,10.943-24.447,24.447c0,13.5,10.944,24.447,24.447,24.447   c13.501,0,24.447-10.946,24.447-24.447C62.828,27.811,51.882,16.867,38.381,16.867" fill="#006553"/><path d="M23.923,28.395c0.04-0.033,0.092-0.041,0.141-0.023c0,0,2.924,2.075,3.066,2.133   c0.12,0.048,0.198-0.074,0.198-0.074s1.917-3.398,2.373-3.322v25.881c0.002,0.304-0.212,0.329-0.482,0.245   c-0.217-0.068-0.167-0.07-0.185-0.08l-5.081-3.56c-0.056-0.026-0.094-0.094-0.094-0.166V28.541   C23.859,28.482,23.883,28.428,23.923,28.395" fill="#FFFFFF"/><path d="M24.854,24.485l16.086-1.221l6.087,1.072l-17.736,1.79L24.854,24.485z M22.203,26.584   c-0.03,0.046-0.038,0.106-0.024,0.162c0.015,0.054,0.053,0.098,0.099,0.116l4.621,2.741c0.016,0.007,0.033,0.011,0.05,0.011   c0.046,0,0.09-0.024,0.12-0.066l1.937-2.788c0,0,0.639-0.443,0.665-0.454l0.575,0.456l2.85,2.788   c0.03,0.042,0.074,0.066,0.12,0.066c0.017,0,0.032-0.002,0.05-0.008l16.419-2.598c0.047-0.018,0.08-0.06,0.098-0.114   c0.015-0.055,0.004-0.114-0.024-0.16l-1.407-2.199c-0.021-0.032-0.05-0.054-0.081-0.064l-7.275-1.436   c-0.028-0.008-0.065-0.012-0.092-0.002l-17.207,1.286c-0.032,0.01-0.062,0.034-0.082,0.065L22.203,26.584z" fill="#FFFFFF"/><path d="M30.4,28.005c0.062-0.026,0.13-0.002,0.172,0.056l2.556,2.371c0,0,0.078,0.121,0.198,0.073   c0.142-0.057,13.939-2.714,13.939-2.714c0.05-0.02,0.101-0.01,0.142,0.024c0.041,0.033,0.062,0.088,0.062,0.146v21.617   c0,0.074-0.038,0.139-0.094,0.166L30.51,53.155c-0.018,0.01-0.038,0.014-0.058,0.014c-0.03,0-0.061-0.01-0.086-0.03   c-0.042-0.033-0.068-0.09-0.068-0.148V28.176C30.298,28.099,30.338,28.031,30.4,28.005" fill="#FFFFFF"/><path d="M35.818,55.467c-0.577-0.098-0.963-0.631-0.861-1.188l4.002-21.764c0.102-0.555,0.656-0.929,1.23-0.828   l17.26,2.953c0.576,0.101,0.963,0.631,0.86,1.188l-4.004,21.763c-0.101,0.557-0.651,0.93-1.229,0.83L35.818,55.467z" fill="#006553"/><path d="M53.168,57.924L35.909,54.97c-0.292-0.05-0.488-0.318-0.437-0.601l4.003-21.764   c0.053-0.281,0.331-0.472,0.623-0.422l17.26,2.956c0.293,0.051,0.486,0.319,0.436,0.602l-4.002,21.763   C53.738,57.785,53.46,57.974,53.168,57.924" fill="#FFFFFF"/><path d="M55.038,41.32c-0.026,0-0.054-0.002-0.08-0.006l-15.202-2.603c-0.248-0.042-0.413-0.27-0.37-0.51   c0.046-0.237,0.286-0.392,0.528-0.355l15.201,2.603c0.248,0.042,0.414,0.27,0.369,0.51C55.445,41.17,55.254,41.32,55.038,41.32" fill="#006553"/><path d="M46.326,37.303c-0.023,0-0.049-0.002-0.073-0.006l-6.056-0.967c-0.248-0.038-0.416-0.265-0.373-0.503   c0.039-0.24,0.276-0.401,0.521-0.361L46.4,36.43c0.248,0.04,0.416,0.267,0.375,0.506C46.738,37.151,46.545,37.303,46.326,37.303" fill="#006553"/><path d="M53.809,49.795c-0.023,0-0.051-0.002-0.073-0.006l-6.056-0.965c-0.248-0.041-0.416-0.269-0.375-0.506   c0.041-0.24,0.279-0.398,0.522-0.361l6.056,0.965c0.248,0.039,0.414,0.266,0.373,0.506C54.219,49.643,54.026,49.795,53.809,49.795" fill="#006553"/><path d="M54.519,44.146c-0.025,0-0.054-0.003-0.079-0.007l-15.202-2.602c-0.248-0.044-0.413-0.271-0.37-0.509   c0.044-0.238,0.288-0.396,0.528-0.356l15.2,2.603c0.248,0.042,0.414,0.271,0.369,0.51C54.926,43.996,54.734,44.146,54.519,44.146" fill="#006553"/><path d="M53.966,47.151c-0.025,0-0.054-0.002-0.08-0.007l-15.202-2.604c-0.248-0.041-0.412-0.27-0.369-0.508   c0.044-0.238,0.29-0.396,0.527-0.354l15.202,2.603c0.248,0.042,0.413,0.271,0.368,0.511C54.373,47.002,54.182,47.151,53.966,47.151   " fill="#006553"/></g></svg>